<mxfile host="app.diagrams.net" modified="2023-11-17T08:00:54.604Z" agent="Mozilla/5.0 (Windows NT 10.0; Win64; x64) AppleWebKit/537.36 (KHTML, like Gecko) Chrome/119.0.0.0 Safari/537.36 Edg/119.0.0.0" etag="I33kazNm6_L-lFH57ruM" version="22.1.2" type="device">
  <diagram name="Page-1" id="VFcDQB4aFmFoAc6JzZJj">
    <mxGraphModel dx="1042" dy="713" grid="1" gridSize="10" guides="1" tooltips="1" connect="1" arrows="1" fold="1" page="1" pageScale="1" pageWidth="4681" pageHeight="3300" math="0" shadow="0">
      <root>
        <mxCell id="0" />
        <mxCell id="1" parent="0" />
      </root>
    </mxGraphModel>
  </diagram>
</mxfile>
